<?xml version="1.0" standalone="no"?>
<!DOCTYPE svg PUBLIC "-//W3C//DTD SVG 20010904//EN"
 "http://www.w3.org/TR/2001/REC-SVG-20010904/DTD/svg10.dtd">
<svg version="1.0" xmlns="http://www.w3.org/2000/svg"
 width="500.000000pt" height="500.000000pt" viewBox="0 0 500.000000 500.000000"
 preserveAspectRatio="xMidYMid meet">

<g transform="translate(0.000000,500.000000) scale(0.100000,-0.100000)"
fill="#000000" stroke="none">
<path d="M2290 4409 c-604 -68 -1138 -411 -1448 -930 -53 -89 -132 -249 -132
-268 0 -6 19 -11 44 -11 l44 0 51 104 c133 274 355 530 611 705 620 426 1450
426 2070 0 256 -175 478 -431 611 -705 l51 -104 44 0 c26 0 44 5 44 11 0 19
-83 187 -134 273 -188 316 -491 591 -826 750 -312 147 -695 213 -1030 175z"/>
<path d="M2245 3931 c-282 -50 -548 -187 -759 -390 -130 -126 -271 -331 -325
-474 -10 -26 -9 -27 24 -27 33 0 36 3 81 91 139 268 350 477 622 613 314 158
705 183 1050 67 337 -113 619 -357 786 -680 45 -88 48 -91 81 -91 33 0 34 1
24 27 -28 74 -111 219 -175 303 -140 186 -317 332 -519 430 -147 72 -246 105
-393 130 -145 25 -356 26 -497 1z"/>
<path d="M280 2500 l0 -260 35 0 35 0 0 225 0 225 234 0 c200 0 237 -2 250
-16 22 -22 29 -57 23 -112 -8 -77 -21 -82 -208 -82 l-159 0 0 -30 0 -30 176 0
c160 0 179 2 204 20 78 55 80 222 4 289 l-35 31 -279 0 -280 0 0 -260z"/>
<path d="M1040 2500 l0 -260 35 0 35 0 0 225 0 225 103 0 c72 0 108 -4 122
-14 11 -8 90 -109 175 -225 l155 -210 43 -1 43 0 -23 33 c-12 17 -93 127 -179
243 -118 158 -165 215 -192 227 -28 13 -65 17 -176 17 l-141 0 0 -260z"/>
<path d="M1880 2754 c0 -3 59 -84 130 -181 l130 -175 0 -79 0 -79 35 0 35 0 0
74 0 74 135 182 c74 101 135 184 135 186 0 2 -19 4 -43 4 l-43 0 -99 -135
c-61 -83 -106 -135 -116 -135 -11 0 -55 52 -116 135 l-98 135 -42 0 c-24 0
-43 -3 -43 -6z"/>
<path d="M2668 2744 c-16 -8 -37 -32 -48 -54 -18 -35 -20 -59 -20 -245 l0
-205 34 0 35 0 3 208 c2 159 6 213 17 225 12 15 45 17 287 17 l274 0 0 35 0
35 -277 0 c-227 -1 -283 -4 -305 -16z"/>
<path d="M3360 2560 c0 -217 5 -244 54 -290 l28 -25 264 -3 264 -3 0 36 0 35
-247 0 c-137 0 -253 4 -259 8 -29 19 -34 56 -34 246 l0 196 -35 0 -35 0 0
-200z"/>
<path d="M4080 2500 l0 -260 35 0 35 0 0 260 0 260 -35 0 -35 0 0 -260z"/>
<path d="M4542 2645 l-83 -115 -84 0 -85 0 0 -30 0 -29 87 -3 87 -3 69 -95
c38 -52 75 -103 82 -113 10 -14 23 -17 53 -15 l41 3 -90 124 c-49 68 -89 128
-89 133 0 4 24 41 53 81 29 39 70 96 91 125 l38 52 -44 0 -43 0 -83 -115z"/>
<path d="M2810 2500 l0 -30 220 0 220 0 0 30 0 30 -220 0 -220 0 0 -30z"/>
<path d="M1140 1997 c0 -30 123 -260 181 -338 283 -382 707 -599 1174 -599
467 0 891 217 1174 599 58 78 181 308 181 338 0 8 -13 13 -32 13 -31 0 -35 -4
-67 -76 -153 -340 -459 -616 -813 -735 -289 -97 -597 -97 -886 0 -351 118
-654 390 -808 725 -37 82 -40 86 -71 86 -20 0 -33 -5 -33 -13z"/>
<path d="M690 1832 c0 -14 49 -131 86 -204 188 -374 515 -693 894 -872 734
-348 1610 -196 2185 379 145 145 271 318 359 493 37 73 86 190 86 204 0 5 -20
8 -45 6 l-45 -3 -43 -95 c-294 -653 -955 -1080 -1672 -1080 -717 0 -1378 427
-1672 1080 l-43 95 -45 3 c-25 2 -45 -1 -45 -6z"/>
</g>
</svg>
