<svg width="34" height="32" viewBox="0 0 34 32" fill="none" xmlns="http://www.w3.org/2000/svg">
<path d="M33.4333 28.6316V26.386H32.3V25.2632C32.3 24.6439 31.7917 24.1404 31.1667 24.1404V15.1579C31.7917 15.1579 32.3 14.6543 32.3 14.0351V12.9123H33.7835L32.0835 9.54386H28.1866L27.0396 6.17544H26.3103C25.912 2.72281 21.892 0 17 0C12.0706 0 8.02003 2.72281 7.61883 6.17544H6.9598L5.81287 9.54386H1.91647L0.216467 12.9123H1.7V14.0351C1.7 14.6543 2.2083 15.1579 2.83333 15.1579V24.1404C2.2083 24.1404 1.7 24.6439 1.7 25.2632V26.386H0.566667V28.6316H0V32H34V28.6316H33.4333ZM31.1667 14.0351C30.5416 14.0351 30.0333 14.5387 30.0333 15.1579V24.1404C30.0333 24.7596 30.5416 25.2632 31.1667 25.2632V26.386H27.7667V25.2632C28.3917 25.2632 28.9 24.7596 28.9 24.1404V15.1579C28.9 14.5387 28.3917 14.0351 27.7667 14.0351V12.9123H31.1667V14.0351ZM6.23333 24.1404V15.1579C6.85837 15.1579 7.36667 14.6543 7.36667 14.0351V12.9123H7.93333V14.0351C7.93333 14.6543 8.44163 15.1579 9.06667 15.1579V24.1404C8.44163 24.1404 7.93333 24.6439 7.93333 25.2632V26.386H7.36667V25.2632C7.36667 24.6439 6.85837 24.1404 6.23333 24.1404ZM9.06667 25.2632C9.6917 25.2632 10.2 24.7596 10.2 24.1404V15.1579C10.2 14.5387 9.6917 14.0351 9.06667 14.0351V12.9123H12.4667V14.0351C11.8416 14.0351 11.3333 14.5387 11.3333 15.1579V24.1404C11.3333 24.7596 11.8416 25.2632 12.4667 25.2632V26.386H9.06667V25.2632ZM12.4667 24.1404V15.1579C13.0917 15.1579 13.6 14.6543 13.6 14.0351V12.9123H14.1667V14.0351C14.1667 14.6543 14.675 15.1579 15.3 15.1579V24.1404C14.675 24.1404 14.1667 24.6439 14.1667 25.2632V26.386H13.6V25.2632C13.6 24.6439 13.0917 24.1404 12.4667 24.1404ZM15.3 25.2632C15.925 25.2632 16.4333 24.7596 16.4333 24.1404V15.1579C16.4333 14.5387 15.925 14.0351 15.3 14.0351V12.9123H18.7V14.0351C18.075 14.0351 17.5667 14.5387 17.5667 15.1579V24.1404C17.5667 24.7596 18.075 25.2632 18.7 25.2632V26.386H15.3V25.2632ZM18.7 24.1404V15.1579C19.325 15.1579 19.8333 14.6543 19.8333 14.0351V12.9123H20.4V14.0351C20.4 14.6543 20.9083 15.1579 21.5333 15.1579V24.1404C20.9083 24.1404 20.4 24.6439 20.4 25.2632V26.386H19.8333V25.2632C19.8333 24.6439 19.325 24.1404 18.7 24.1404ZM21.5333 25.2632C22.1584 25.2632 22.6667 24.7596 22.6667 24.1404V15.1579C22.6667 14.5387 22.1584 14.0351 21.5333 14.0351V12.9123H24.9333V14.0351C24.3083 14.0351 23.8 14.5387 23.8 15.1579V24.1404C23.8 24.7596 24.3083 25.2632 24.9333 25.2632V26.386H21.5333V25.2632ZM24.9333 24.1404V15.1579C25.5584 15.1579 26.0667 14.6543 26.0667 14.0351V12.9123H26.6333V14.0351C26.6333 14.6543 27.1416 15.1579 27.7667 15.1579V24.1404C27.1416 24.1404 26.6333 24.6439 26.6333 25.2632V26.386H26.0667V25.2632C26.0667 24.6439 25.5584 24.1404 24.9333 24.1404ZM8.88193 7.93712L7.23407 8.88253L7.77297 7.29825H9.996L8.88193 7.93712ZM9.80617 8.70512L17 4.57825L25.6564 9.54386H8.3436L9.80617 8.70512ZM26.7654 8.88253L25.1175 7.93712L24.0034 7.29825H26.2265L26.7654 8.88253ZM17 1.12281C21.2534 1.12281 24.7622 3.3426 25.1759 6.17544H22.0467L17 3.2814L11.9538 6.17544H8.75557C9.1868 3.38358 12.7868 1.12281 17 1.12281ZM2.61687 10.6667H4.12363H6.1404L6.2645 10.7363L6.38633 10.6667H27.6346L27.7638 10.7324L27.8726 10.6667H29.8769H31.3837L31.9504 11.7895H26.6333H26.0667H20.4H19.8333H14.1667H13.6H7.93333H7.36667H2.0502L2.61687 10.6667ZM2.83333 25.2632C3.45837 25.2632 3.96667 24.7596 3.96667 24.1404V15.1579C3.96667 14.5387 3.45837 14.0351 2.83333 14.0351V12.9123H6.23333V14.0351C5.6083 14.0351 5.1 14.5387 5.1 15.1579V24.1404C5.1 24.7596 5.6083 25.2632 6.23333 25.2632V26.386H2.83333V25.2632ZM1.7 27.5088H7.36667H7.93333H13.6H14.1667H19.8333H20.4H26.0667H26.6333H32.3V28.6316H1.7V27.5088ZM32.8667 30.8772H1.13333V29.7544H32.8667V30.8772Z" fill="#3B3938"/>
</svg>
