<svg width="211" height="211" viewBox="0 0 211 211" fill="none" xmlns="http://www.w3.org/2000/svg">
<path d="M211 105.5C211 163.766 163.766 211 105.5 211C47.2339 211 0 163.766 0 105.5C0 47.234 47.2339 0 105.5 0C127.218 0 147.403 6.56218 164.18 17.8119L140.774 35.1027C130.293 29.9154 118.487 27 106 27C62.6457 27 27.5 62.1456 27.5 105.5C27.5 148.854 62.6457 184 106 184C149.354 184 184.5 148.854 184.5 105.5C184.5 105.09 184.497 104.68 184.491 104.271L209.215 86.0747C210.387 92.3711 211 98.864 211 105.5Z" fill="#28AC4F"/>
<path d="M61 101.591L103.418 130.413L200.251 59.1484C200.251 59.1484 198 54 193.373 47.096C189 40.5 184.924 36.0563 184.924 36.0563L102.784 96.735L61 68.3434V101.591Z" fill="#28AC4F"/>
</svg>
